<svg width="81" height="56" viewBox="0 0 81 56" fill="none" xmlns="http://www.w3.org/2000/svg">
<path d="M40.4912 10.0332C43.6715 17.8332 49.6938 24.1932 57.3525 27.8672C49.717 31.5523 43.7025 37.905 40.5098 45.6816C37.3291 37.8815 31.3067 31.5214 23.6475 27.8477C31.2837 24.1626 37.2983 17.8104 40.4912 10.0332Z" fill="#FFFBD7" stroke="#121117" stroke-width="5.04012"/>
<path d="M6.30664 23.9297C8.54225 23.9297 10.3125 25.712 10.3125 27.8584C10.3123 30.0046 8.54213 31.7871 6.30664 31.7871C4.07125 31.787 2.30195 30.0045 2.30176 27.8584C2.30176 25.7121 4.07112 23.9298 6.30664 23.9297Z" fill="#FFFBD7" stroke="#121117" stroke-width="3.80415"/>
<path d="M74.6943 23.9297C76.9299 23.9297 78.7002 25.712 78.7002 27.8584C78.7 30.0046 76.9298 31.7871 74.6943 31.7871C72.4589 31.787 70.6896 30.0045 70.6895 27.8584C70.6895 25.7121 72.4588 23.9298 74.6943 23.9297Z" fill="#FFFBD7" stroke="#121117" stroke-width="3.80415"/>
</svg>
