<svg width="28" height="27" viewBox="0 0 28 27" fill="none" xmlns="http://www.w3.org/2000/svg">
<path d="M11.209 5.17773C8.96289 5.60091 7.38411 7.22852 6.47266 10.0605C6.01693 11.4603 5.78906 12.8438 5.78906 14.2109C5.78906 14.3737 5.78906 14.5202 5.78906 14.6504C5.82161 14.748 5.85417 14.9922 5.88672 15.3828H11.209V26.0273H0.808594V16.2129C0.808594 11.3952 1.76888 7.68424 3.68945 5.08008C5.61003 2.47591 8.11654 0.978516 11.209 0.587891V5.17773ZM27.6641 5.17773C25.8737 5.4707 24.5065 6.47982 23.5625 8.20508C22.651 9.93034 22.1953 11.916 22.1953 14.1621C22.1953 14.3574 22.1953 14.5527 22.1953 14.748C22.2279 14.9434 22.2767 15.1549 22.3418 15.3828H27.6641V26.0273H17.2148V16.2129C17.2148 12.3392 18.0286 8.88867 19.6562 5.86133C21.2839 2.80143 23.9531 1.04362 27.6641 0.587891V5.17773Z" fill="#FFFBD7"/>
</svg>
