<svg width="49" height="40" viewBox="0 0 49 40" fill="none" xmlns="http://www.w3.org/2000/svg">
<path d="M9.06294 19.3789L9.26737 20.474C10.1078 24.8762 13.5717 28.4 18.1259 29.4734C13.583 30.5577 10.1191 34.0816 9.26737 38.4729L9.06294 39.568L8.85851 38.4729C8.01809 34.0708 4.55418 30.5469 0 29.4734C4.54283 28.3892 8.00673 24.8653 8.85851 20.474L9.06294 19.3789Z" fill="#FFFBD7"/>
<path d="M14.3495 3.51562L14.4346 3.98496C14.7848 5.87159 16.2281 7.38182 18.1257 7.84186C16.2328 8.30654 14.7896 9.81678 14.4346 11.6988L14.3495 12.1681L14.2643 11.6988C13.9141 9.81214 12.4708 8.3019 10.5732 7.84186C12.4661 7.37717 13.9094 5.86694 14.2643 3.98496L14.3495 3.51562Z" fill="#FFFBD7"/>
<path d="M33.2309 0.631836L33.5716 2.43097C34.9723 9.66304 40.7455 15.4522 48.3358 17.2157C40.7644 18.997 34.9912 24.7863 33.5716 32.0005L33.2309 33.7996L32.8902 32.0005C31.4895 24.7685 25.7163 18.9792 18.126 17.2157C25.6974 15.4344 31.4705 9.64523 32.8902 2.43097L33.2309 0.631836Z" fill="#FFFBD7"/>
</svg>
