<svg width="40" height="40" viewBox="0 0 40 40" fill="none" xmlns="http://www.w3.org/2000/svg">
<rect width="40" height="40" rx="20" fill="#C5A9FE"/>
<rect x="4" y="4" width="32" height="32" rx="16" fill="#C5A9FE"/>
<path fill-rule="evenodd" clip-rule="evenodd" d="M15.6386 15.6386C16.7953 14.4818 18.3641 13.832 20 13.832C21.6359 13.832 23.2047 14.4818 24.3614 15.6386C25.5182 16.7953 26.168 18.3641 26.168 20C26.168 21.6359 25.5182 23.2047 24.3614 24.3614C23.2047 25.5182 21.6359 26.168 20 26.168C18.3641 26.168 16.7953 25.5182 15.6386 24.3614C14.4818 23.2047 13.832 21.6359 13.832 20C13.832 18.3641 14.4818 16.7953 15.6386 15.6386ZM18.4677 23.6992C18.9535 23.9004 19.4742 24.004 20 24.004C21.0619 24.004 22.0804 23.5822 22.8313 22.8313C23.5821 22.0804 24.004 21.0619 24.004 20C24.004 18.9381 23.5821 17.9196 22.8313 17.1687C22.0804 16.4179 21.0619 15.996 20 15.996C19.4742 15.996 18.9535 16.0996 18.4677 16.3008C17.9819 16.502 17.5406 16.7969 17.1687 17.1687C16.7969 17.5406 16.502 17.982 16.3008 18.4677C16.0996 18.9535 15.996 19.4742 15.996 20C15.996 20.5258 16.0996 21.0465 16.3008 21.5323C16.502 22.0181 16.7969 22.4595 17.1687 22.8313C17.5406 23.2031 17.9819 23.498 18.4677 23.6992Z" fill="#FFFBD7"/>
<path d="M27.5354 14.751C27.8088 14.4775 27.9624 14.1067 27.9624 13.72C27.9624 13.3333 27.8088 12.9625 27.5354 12.689C27.2619 12.4156 26.8911 12.262 26.5044 12.262C26.1177 12.262 25.7469 12.4156 25.4734 12.689C25.2 12.9625 25.0464 13.3333 25.0464 13.72C25.0464 14.1067 25.2 14.4775 25.4734 14.751C25.7469 15.0244 26.1177 15.178 26.5044 15.178C26.8911 15.178 27.2619 15.0244 27.5354 14.751Z" fill="#FFFBD7"/>
<path fill-rule="evenodd" clip-rule="evenodd" d="M15.0528 8.072C16.3328 8.0136 16.7408 8 20 8C23.26 8 23.6672 8.0144 24.9464 8.072C26.224 8.1304 27.0976 8.3344 27.8608 8.6296C28.6612 8.93109 29.3863 9.40338 29.9856 10.0136C30.596 10.6131 31.0683 11.3385 31.3696 12.1392C31.6664 12.9024 31.8696 13.7752 31.928 15.0528C31.9864 16.3328 32 16.7408 32 20C32 23.2592 31.9864 23.6672 31.928 24.9472C31.8696 26.2248 31.6664 27.0976 31.3704 27.8608C31.0689 28.6612 30.5966 29.3863 29.9864 29.9856C29.3864 30.5968 28.6608 31.0688 27.8608 31.3696C27.0976 31.6664 26.2248 31.8696 24.9472 31.928C23.6672 31.9864 23.2592 32 20 32C16.7408 32 16.3328 31.9864 15.0528 31.928C13.7752 31.8696 12.9024 31.6664 12.1392 31.3704C11.3388 31.0689 10.6137 30.5966 10.0144 29.9864C9.4032 29.3864 8.9312 28.6608 8.6304 27.8608C8.3336 27.0976 8.1304 26.2248 8.072 24.9472C8.0136 23.6672 8 23.26 8 20C8 16.74 8.0144 16.3328 8.072 15.0536C8.1304 13.776 8.3344 12.9024 8.6296 12.1392C8.93109 11.3388 9.40338 10.6137 10.0136 10.0144C10.6136 9.4032 11.3392 8.9312 12.1392 8.6304C12.9024 8.3336 13.7752 8.1304 15.0528 8.072ZM24.8496 10.232C23.584 10.1744 23.204 10.1624 20 10.1624C16.796 10.1624 16.416 10.1744 15.1504 10.232C13.9808 10.2856 13.3456 10.4808 12.9224 10.6456C12.4011 10.8376 11.9296 11.144 11.5424 11.5424C11.1232 11.9624 10.8624 12.3624 10.6456 12.9224C10.48 13.3456 10.2856 13.9808 10.232 15.1504C10.1744 16.416 10.1624 16.796 10.1624 20C10.1624 23.204 10.1744 23.584 10.232 24.8496C10.2856 26.0192 10.4808 26.6544 10.6456 27.0776C10.8377 27.5988 11.1441 28.0704 11.5424 28.4576C11.9296 28.8559 12.4012 29.1623 12.9224 29.3544C13.3456 29.52 13.9808 29.7144 15.1504 29.768C16.416 29.8256 16.7952 29.8376 20 29.8376C23.2048 29.8376 23.584 29.8256 24.8496 29.768C26.0192 29.7144 26.6544 29.5192 27.0776 29.3544C27.5989 29.1624 28.0705 28.856 28.4576 28.4576C28.8559 28.0704 29.1623 27.5988 29.3544 27.0776C29.52 26.6544 29.7144 26.0192 29.768 24.8496C29.8256 23.584 29.8376 23.204 29.8376 20C29.8376 16.796 29.8256 16.416 29.768 15.1504C29.7144 13.9808 29.5192 13.3456 29.3544 12.9224C29.1376 12.3624 28.8776 11.9624 28.4576 11.5424C28.0376 11.1232 27.6376 10.8624 27.0776 10.6456C26.6544 10.48 26.0192 10.2856 24.8496 10.232Z" fill="#FFFBD7"/>
</svg>
